<svg width="21" height="20" viewBox="0 0 21 20" fill="none" xmlns="http://www.w3.org/2000/svg">
<path d="M8.88857 11.1751C9.23024 11.5001 9.23024 12.0334 8.88857 12.3584C8.56357 12.6834 8.03024 12.6834 7.70524 12.3584C6.92472 11.5767 6.48633 10.5172 6.48633 9.41259C6.48633 8.30795 6.92472 7.24845 7.70524 6.46676L10.6552 3.51676C11.4369 2.73624 12.4964 2.29785 13.6011 2.29785C14.7057 2.29785 15.7652 2.73624 16.5469 3.51676C17.3274 4.29845 17.7658 5.35795 17.7658 6.46259C17.7658 7.56724 17.3274 8.62674 16.5469 9.40843L15.3052 10.6501C15.3136 9.96676 15.2052 9.28343 14.9719 8.63343L15.3636 8.23343C15.5972 8.00233 15.7826 7.7272 15.9092 7.42395C16.0358 7.12071 16.101 6.79536 16.101 6.46676C16.101 6.13816 16.0358 5.81282 15.9092 5.50957C15.7826 5.20632 15.5972 4.93119 15.3636 4.70009C15.1325 4.46648 14.8573 4.28102 14.5541 4.15444C14.2508 4.02787 13.9255 3.9627 13.5969 3.9627C13.2683 3.9627 12.943 4.02787 12.6397 4.15444C12.3365 4.28102 12.0613 4.46648 11.8302 4.70009L8.88857 7.64176C8.65496 7.87286 8.46949 8.14799 8.34292 8.45124C8.21635 8.75448 8.15117 9.07982 8.15117 9.40843C8.15117 9.73703 8.21635 10.0624 8.34292 10.3656C8.46949 10.6689 8.65496 10.944 8.88857 11.1751ZM11.2386 7.64176C11.5636 7.31676 12.0969 7.31676 12.4219 7.64176C13.2024 8.42345 13.6408 9.48295 13.6408 10.5876C13.6408 11.6922 13.2024 12.7517 12.4219 13.5334L9.4719 16.4834C8.69021 17.2639 7.63072 17.7023 6.52607 17.7023C5.42142 17.7023 4.36193 17.2639 3.58024 16.4834C2.79972 15.7017 2.36133 14.6422 2.36133 13.5376C2.36133 12.4329 2.79972 11.3735 3.58024 10.5918L4.8219 9.35009C4.81357 10.0334 4.9219 10.7168 5.15524 11.3751L4.76357 11.7668C4.52996 11.9979 4.34449 12.273 4.21792 12.5762C4.09135 12.8795 4.02617 13.2048 4.02617 13.5334C4.02617 13.862 4.09135 14.1874 4.21792 14.4906C4.34449 14.7939 4.52996 15.069 4.76357 15.3001C4.99466 15.5337 5.2698 15.7192 5.57305 15.8457C5.87629 15.9723 6.20163 16.0375 6.53024 16.0375C6.85884 16.0375 7.18418 15.9723 7.48743 15.8457C7.79068 15.7192 8.06581 15.5337 8.2969 15.3001L11.2386 12.3584C11.4722 12.1273 11.6576 11.8522 11.7842 11.549C11.9108 11.2457 11.976 10.9204 11.976 10.5918C11.976 10.2632 11.9108 9.93782 11.7842 9.63457C11.6576 9.33132 11.4722 9.05619 11.2386 8.82509C11.1576 8.74925 11.0931 8.65762 11.049 8.55585C11.0049 8.45408 10.9822 8.34434 10.9822 8.23343C10.9822 8.12251 11.0049 8.01278 11.049 7.91101C11.0931 7.80924 11.1576 7.7176 11.2386 7.64176Z" fill="white"/>
</svg>
