<svg width="33" height="27" viewBox="0 0 33 27" fill="none" xmlns="http://www.w3.org/2000/svg">
<path d="M10.7247 26.7021C22.9765 26.7021 29.6796 16.5491 29.6796 7.74716C29.6796 7.46174 29.6732 7.16997 29.6605 6.88454C30.9645 5.94154 32.0898 4.7735 32.9835 3.43531C31.7691 3.97562 30.4798 4.3285 29.1595 4.48188C30.5496 3.64858 31.5905 2.33951 32.0892 0.797333C30.7814 1.5724 29.3512 2.11914 27.8598 2.41412C26.855 1.34643 25.5264 0.639489 24.0795 0.402602C22.6326 0.165715 21.1479 0.412073 19.8551 1.10359C18.5622 1.7951 17.5332 2.89326 16.927 4.22827C16.3209 5.56328 16.1714 7.06079 16.5017 8.48927C13.8536 8.35639 11.2629 7.66847 8.89771 6.47013C6.5325 5.27178 4.44551 3.58976 2.77205 1.5331C1.92151 2.99953 1.66125 4.73479 2.04415 6.38622C2.42705 8.03765 3.42439 9.48132 4.83347 10.4238C3.77562 10.3902 2.74094 10.1054 1.81492 9.59292V9.67538C1.81397 11.2143 2.34599 12.706 3.32053 13.897C4.29508 15.088 5.65201 15.9048 7.16065 16.2085C6.18072 16.4766 5.15224 16.5157 4.15479 16.3227C4.5805 17.6461 5.40878 18.8037 6.52403 19.6337C7.63928 20.4638 8.98586 20.925 10.3758 20.9529C8.01607 22.8065 5.10108 23.8119 2.10035 23.8072C1.56819 23.8064 1.03656 23.7738 0.508301 23.7095C3.55672 25.6652 7.10285 26.7039 10.7247 26.7021Z" fill="white" fill-opacity="0.5"/>
</svg>
